# xmcd
#
# Track frame offsets:
#	150
#	22799
#	46904
#	66846
#	84361
#	108301
#	127620
#	147046
#	168578
#	189417
#	205211
#	225922
#	245703
#	269901
#	289903
#
# Disc length: 4120 seconds
#
# Revision: 3
# Processed by: cddbd v1.5.2PL0 Copyright (c) Steve Scherf et al.
# Submitted via: EZCDAudioConverter 8.0.2.1
#
DISCID=cb10160f
DTITLE=Lê Hiếu - Vol 03. Ngày Qua Lặng Thầm
DYEAR=2005
DGENRE=Pop
TTITLE0=Lê Hiếu - Ngày Qua Lặng Thầm
TTITLE1=Lê Hiếu, Lệ Quyên - Con đường màu xanh
TTITLE2=Lê Hiếu - Lời từ biệt tình yêu
TTITLE3=Lê Hiếu - Trái tim thật thà
TTITLE4=Lê Hiếu - Cơn mưa mùa đông
TTITLE5=Lê Hiếu - Qua rồi tháng ngày bên nhau
TTITLE6=Lê Hiếu - Em có biết không
TTITLE7=Lê Hiếu, Thanh Lam - Như đã dấu yêu
TTITLE8=Lê Hiếu - Mỗi lần gặp anh
TTITLE9=Lê Hiếu - Tình yêu
TTITLE10=Lê Hiếu - Tiếng mưa đêm
TTITLE11=Lê Hiếu - Trái tim thật thà [Version 2]
TTITLE12=Soundtrack - Con đường màu xanh
TTITLE13=Soundtrack - Lời từ biệt tình yêu
TTITLE14=Soundtrack - Em có biết không
EXTD=
EXTT0=
EXTT1=
EXTT2=
EXTT3=
EXTT4=
EXTT5=
EXTT6=
EXTT7=
EXTT8=
EXTT9=
EXTT10=
EXTT11=
EXTT12=
EXTT13=
EXTT14=
PLAYORDER=
